<svg width="512" height="512" viewBox="0 0 512 512" fill="none" xmlns="http://www.w3.org/2000/svg">
  <rect width="512" height="512" rx="128" fill="#0F172A"/>
  <defs>
    <linearGradient id="c_gradient" x1="128" y1="128" x2="384" y2="384" gradientUnits="userSpaceOnUse">
      <stop stop-color="#2563EB"/>
      <stop offset="1" stop-color="#9333EA"/>
    </linearGradient>
  </defs>
  <path d="M384 192C364 152 320 128 272 128C194.68 128 132 190.68 132 268C132 345.32 194.68 408 272 408C320 408 364 384 384 344" stroke="url(#c_gradient)" stroke-width="48" stroke-linecap="round"/>
  <circle cx="272" cy="268" r="80" stroke="url(#c_gradient)" stroke-width="12" fill="none" opacity="0.5"/>
  <path d="M192 268H352M272 188V348M205 220C225 240 319 240 339 220M205 316C225 296 319 296 339 316" stroke="url(#c_gradient)" stroke-width="8" stroke-linecap="round" opacity="0.4"/>
</svg>
